<?xml version="1.0" encoding="utf-8"?>
<!-- Generator: Adobe Illustrator 28.1.0, SVG Export Plug-In . SVG Version: 6.00 Build 0)  -->
<svg version="1.1" xmlns="http://www.w3.org/2000/svg" xmlns:xlink="http://www.w3.org/1999/xlink" x="0px" y="0px"
	 viewBox="0 0 1366 768" style="enable-background:new 0 0 1366 768;" xml:space="preserve">
<style type="text/css">
	.st0{fill:url(#SVGID_1_);}
	.st1{fill:none;}
	.st2{fill:#606060;}
	.st3{fill:#998675;}
	.st4{fill:#E6E6E6;}
</style>
<g id="Bakgrund">
	<g>
		<linearGradient id="SVGID_1_" gradientUnits="userSpaceOnUse" x1="685.7094" y1="-86.7614" x2="681.7094" y2="608.2386">
			<stop  offset="4.954844e-07" style="stop-color:#0078BF"/>
			<stop  offset="1" style="stop-color:#FFEA6A"/>
		</linearGradient>
		<rect class="st0" width="1366" height="768"/>
	</g>
</g>
<g id="Skog">
	<g>
		<path class="st1" d="M1291,529c0,0.33,0,0.67,0,1"/>
		<polygon class="st2" points="100,262 263.66,564.51 427.31,867.03 83.5,857.5 -260.31,847.97 -80.16,554.99 		"/>
		<polygon class="st2" points="397,348.48 544.67,604.25 692.33,860.02 397,860.02 101.67,860.02 249.33,604.25 		"/>
		<polygon class="st2" points="607.5,343.29 756.66,601.65 905.82,860 607.5,860 309.18,860 458.34,601.65 		"/>
		<polygon class="st2" points="831.02,406.57 964.22,629.24 1097.41,851.92 837.98,855.93 578.54,859.94 704.78,633.26 		"/>
		<polygon class="st2" points="1107.51,396.38 1238.48,631.92 1369.46,867.46 1099.99,863.12 830.52,858.78 969.02,627.58 		"/>
		<polygon class="st2" points="1307.02,342.96 1437.99,578.5 1568.97,814.04 1299.5,809.7 1030.03,805.35 1168.53,574.16 		"/>
		<rect x="-64" y="781" class="st2" width="1459" height="142"/>
	</g>
	<path class="st1" d="M-71,132c0,0.33,0,0.67,0,1"/>
	<polygon class="st3" points="101.51,265.89 217.96,495.5 334.42,725.11 265.54,748.52 196.67,771.92 149.09,518.91 	"/>
	<polygon class="st3" points="397.05,348.48 513.5,578.09 629.95,807.7 561.08,831.11 492.21,854.52 444.63,601.5 	"/>
	<polygon class="st3" points="607.05,348.48 723.5,578.09 839.95,807.7 771.08,831.11 702.21,854.52 654.63,601.5 	"/>
	<polygon class="st3" points="830.05,413.48 946.5,643.09 1062.95,872.7 994.08,896.11 925.21,919.52 877.63,666.5 	"/>
	<polygon class="st3" points="1108.05,402.48 1224.5,632.09 1340.95,861.7 1272.08,885.11 1203.21,908.52 1155.63,655.5 	"/>
	<polygon class="st3" points="1308.05,351.48 1424.5,581.09 1540.95,810.7 1472.08,834.11 1403.21,857.52 1355.63,604.5 	"/>
	<g>
		<path class="st1" d="M1393.17,796c0,0.33,0,0.67,0,1"/>
		<polygon class="st2" points="202.17,529 365.83,831.51 529.48,1134.03 185.67,1124.5 -158.14,1114.97 22.02,821.99 		"/>
		<polygon class="st2" points="499.17,615.48 646.84,871.25 794.51,1127.02 499.17,1127.02 203.84,1127.02 351.5,871.25 		"/>
		<polygon class="st2" points="709.67,610.29 858.83,868.65 1007.99,1127 709.67,1127 411.35,1127 560.51,868.65 		"/>
		<polygon class="st2" points="933.2,673.57 1066.39,896.24 1199.59,1118.92 940.15,1122.93 680.71,1126.94 806.95,900.26 		"/>
		<polygon class="st2" points="1209.68,663.38 1340.66,898.92 1471.63,1134.46 1202.16,1130.12 932.7,1125.78 1071.19,894.58 		"/>
		<polygon class="st2" points="1409.19,609.96 1540.17,845.5 1671.14,1081.04 1401.67,1076.7 1132.2,1072.35 1270.7,841.16 		"/>
		<rect x="38.17" y="1048" class="st2" width="1459" height="142"/>
	</g>
	<circle class="st4" cx="1167" cy="169" r="137"/>
</g>
</svg>
