<?xml version="1.0" encoding="utf-8"?>
<!-- Generator: Adobe Illustrator 28.1.0, SVG Export Plug-In . SVG Version: 6.00 Build 0)  -->
<svg version="1.1" id="Lager_1" xmlns="http://www.w3.org/2000/svg" xmlns:xlink="http://www.w3.org/1999/xlink" x="0px" y="0px"
	 viewBox="0 0 1366 768" style="enable-background:new 0 0 1366 768;" xml:space="preserve">
<style type="text/css">
	.st0{fill:#006837;}
	.st1{fill:#FFFFFF;}
	.st2{fill:#006837;stroke:#FFFFFF;stroke-miterlimit:10;}
	.st3{fill:#CCCCCC;stroke:#FFFFFF;stroke-miterlimit:10;}
	.st4{fill:#29ABE2;stroke:#FFFFFF;stroke-miterlimit:10;}
	.st5{fill:#666666;stroke:#FFFFFF;stroke-miterlimit:10;}
</style>
<g>
	<g>
		<path class="st0" d="M-52,229.5c1.93,0,1.93-3,0-3C-53.93,226.5-53.93,229.5-52,229.5L-52,229.5z"/>
	</g>
</g>
<g>
	<g>
		<path class="st1" d="M60,46.5c1.93,0,1.93-3,0-3C58.07,43.5,58.07,46.5,60,46.5L60,46.5z"/>
	</g>
</g>
<g>
	<g>
		<path class="st1" d="M43,149.5c1.93,0,1.93-3,0-3C41.07,146.5,41.07,149.5,43,149.5L43,149.5z"/>
	</g>
</g>
<g>
	<g>
		<path class="st1" d="M1199,148.5c1.93,0,1.93-3,0-3C1197.07,145.5,1197.07,148.5,1199,148.5L1199,148.5z"/>
	</g>
</g>
<g>
	<g>
		<path class="st1" d="M1186,78.5c1.93,0,1.93-3,0-3C1184.07,75.5,1184.07,78.5,1186,78.5L1186,78.5z"/>
	</g>
</g>
<g>
	<g>
		<path class="st1" d="M1353,59.5c1.93,0,1.93-3,0-3C1351.07,56.5,1351.07,59.5,1353,59.5L1353,59.5z"/>
	</g>
</g>
<g>
	<g>
		<path class="st1" d="M1362,177.5c1.93,0,1.93-3,0-3C1360.07,174.5,1360.07,177.5,1362,177.5L1362,177.5z"/>
	</g>
</g>
<g>
	<g>
		<path class="st1" d="M1172,33.5c1.93,0,1.93-3,0-3C1170.07,30.5,1170.07,33.5,1172,33.5L1172,33.5z"/>
	</g>
</g>
<rect x="-0.5" y="-0.5" class="st2" width="1366" height="768"/>
<g>
	<g>
		<path class="st3" d="M889.73,711.1l-137.5-39.26c-31.86-9.1-50.32-42.3-41.22-74.17l73.58-257.7c9.1-31.86,42.3-50.32,74.17-41.22
			l137.5,39.26c31.86,9.1,50.32,42.3,41.22,74.17l-73.58,257.7C954.8,701.74,921.59,720.2,889.73,711.1z"/>
		<path class="st4" d="M893.09,712.06l-144.24-41.19c-30-8.57-47.38-39.84-38.82-69.84l47.09-164.91l252.89,72.21l-47.09,164.91
			C954.37,703.25,923.1,720.63,893.09,712.06z"/>
		<path class="st5" d="M974.97,336.09l-97.12-27.73c-14.87-4.25-23.48-19.74-19.24-34.61l8.24-28.85
			c4.25-14.87,19.74-23.48,34.61-19.24l97.12,27.73c14.87,4.25,23.48,19.74,19.24,34.61l-8.24,28.85
			C1005.34,331.73,989.84,340.34,974.97,336.09z"/>
	</g>
	<g>
		<path class="st3" d="M757.5,663.5h-143c-33.14,0-60-26.86-60-60v-268c0-33.14,26.86-60,60-60h143c33.14,0,60,26.86,60,60v268
			C817.5,636.64,790.64,663.5,757.5,663.5z"/>
		<path class="st4" d="M761,663.5H611c-31.2,0-56.5-25.3-56.5-56.5V435.5h263V607C817.5,638.2,792.2,663.5,761,663.5z"/>
		<path class="st5" d="M736.5,279.5h-101c-15.46,0-28-12.54-28-28v-30c0-15.46,12.54-28,28-28h101c15.46,0,28,12.54,28,28v30
			C764.5,266.96,751.96,279.5,736.5,279.5z"/>
	</g>
	<g>
		<path class="st3" d="M618.09,660.48l-134.25,49.27c-31.11,11.42-65.58-4.55-77-35.66L314.51,422.5
			c-11.42-31.11,4.55-65.58,35.66-77l134.25-49.27c31.11-11.42,65.58,4.55,77,35.66l92.33,251.59
			C665.16,614.59,649.19,649.06,618.09,660.48z"/>
		<path class="st4" d="M621.37,659.27l-140.82,51.68c-29.29,10.75-61.76-4.28-72.51-33.58l-59.09-161l246.9-90.61l59.09,161
			C665.7,616.06,650.67,648.52,621.37,659.27z"/>
		<path class="st5" d="M466.07,307.22l-94.82,34.8c-14.52,5.33-30.6-2.12-35.93-16.64l-10.34-28.16
			c-5.33-14.52,2.12-30.6,16.64-35.93l94.82-34.8c14.52-5.33,30.6,2.12,35.93,16.64l10.34,28.16
			C488.04,285.81,480.59,301.9,466.07,307.22z"/>
	</g>
</g>
</svg>
