<?xml version="1.0" encoding="utf-8"?>
<!-- Generator: Adobe Illustrator 28.1.0, SVG Export Plug-In . SVG Version: 6.00 Build 0)  -->
<svg version="1.1" id="Lager_1" xmlns="http://www.w3.org/2000/svg" xmlns:xlink="http://www.w3.org/1999/xlink" x="0px" y="0px"
	 viewBox="0 0 1366 768" style="enable-background:new 0 0 1366 768;" xml:space="preserve">
<style type="text/css">
	.st0{fill:#006837;}
	.st1{fill:url(#SVGID_1_);}
	.st2{fill:#009245;}
	.st3{fill:#FFFFFF;}
	.st4{fill:#736357;}
	.st5{fill:#F2F2F2;}
	.st6{fill:#F7931E;}
</style>
<g>
	<g>
		<path class="st0" d="M-52,229.5c1.93,0,1.93-3,0-3C-53.93,226.5-53.93,229.5-52,229.5L-52,229.5z"/>
	</g>
</g>
<g>
	<g>
		<linearGradient id="SVGID_1_" gradientUnits="userSpaceOnUse" x1="678.9013" y1="-67.6305" x2="682.9013" y2="515.3694">
			<stop  offset="0" style="stop-color:#CCE0F4"/>
			<stop  offset="0.0641" style="stop-color:#C3DCF2"/>
			<stop  offset="0.1706" style="stop-color:#A9D2EE"/>
			<stop  offset="0.3066" style="stop-color:#80C2E7"/>
			<stop  offset="0.4649" style="stop-color:#47ACDE"/>
			<stop  offset="0.5674" style="stop-color:#1E9CD7"/>
			<stop  offset="0.8652" style="stop-color:#0075BE"/>
			<stop  offset="0.9944" style="stop-color:#005B97"/>
		</linearGradient>
		<rect x="-1" class="st1" width="1366" height="768"/>
	</g>
	<g>
		<path class="st0" d="M-19.25,468.2c58.14,9.63,116.54,19.28,175.46,20.13c189.65,2.74,378.59-85.42,564.14-46.05
			c49.1,10.42,97.21,29.72,147.38,28.26c73.74-2.15,137.7-48.11,204.42-79.6c74.65-35.23,156.62-53.25,238.9-59.93
			c17.34-1.41,35.77-2.1,51.04,6.23c28.92,15.79,33.22,54.81,34.03,87.75c2.47,101.26,4.94,202.51,7.42,303.77
			c0.59,24.06,0.13,50.93-16.65,68.18c-15.96,16.4-41.22,18.37-64.1,19.19c-254.82,9.18-510.22,2.38-764.19-20.36
			c-57.08-5.11-115.74-10.88-170.79,5.07c-34.66,10.05-67.21,28.56-103.14,31.85c-20.4,1.87-40.89-1.3-61.14-4.46
			c-69.42-10.84-138.85-21.68-208.27-32.52c-17.44-2.72-38.06-7.98-43.72-24.71c-3.04-8.98-0.63-18.77,1.72-27.96
			c22.35-87.5,37.24-182.04,5.37-266.54"/>
	</g>
	<g>
		<path class="st2" d="M-43.96,583.39c119.24-0.1,238.48-8.11,356.66-23.94c38.83-5.2,77.69-11.26,116.87-11.75
			c113.28-1.42,225.35,43.67,337.62,28.51c94.26-12.72,184.36-67.46,278.32-52.61c43.67,6.9,84.49,28.68,128.63,31.14
			c68.69,3.83,136.12-39.58,203.31-24.77c8.62,1.9,17.47,5.03,23.24,11.71c7.1,8.22,8.06,19.93,8.47,30.77
			c1.72,46.16-0.71,92.48-7.25,138.21c-3.21,22.47-8.38,46.58-25.42,61.56c-16.86,14.83-41.05,16.99-63.46,18.45
			c-103.46,6.72-206.91,13.45-310.37,20.17c-67.04,4.36-134.43,8.71-201.29,2.17c-44.69-4.37-88.78-13.58-133.38-18.77
			c-56.77-6.6-114.07-6.65-171.22-6.43c-170.46,0.66-341.77,3.59-510.44-21.06c-6.45-0.94-13.27-2.09-18.2-6.35
			c-7.54-6.51-8.14-17.79-8.16-27.75c-0.11-48.87-0.22-97.73-0.33-146.6"/>
	</g>
</g>
<g>
	<g>
		<path class="st3" d="M356,113.5c1.93,0,1.93-3,0-3C354.07,110.5,354.07,113.5,356,113.5L356,113.5z"/>
	</g>
</g>
<g>
	<g>
		<path class="st3" d="M409,167.5c1.93,0,1.93-3,0-3C407.07,164.5,407.07,167.5,409,167.5L409,167.5z"/>
	</g>
</g>
<g>
	<g>
		<path class="st3" d="M518,101.5c1.93,0,1.93-3,0-3C516.07,98.5,516.07,101.5,518,101.5L518,101.5z"/>
	</g>
</g>
<g>
	<g>
		<path class="st3" d="M612,216.5c1.93,0,1.93-3,0-3C610.07,213.5,610.07,216.5,612,216.5L612,216.5z"/>
	</g>
</g>
<g>
	<g>
		<path class="st3" d="M689,125.5c1.93,0,1.93-3,0-3C687.07,122.5,687.07,125.5,689,125.5L689,125.5z"/>
	</g>
</g>
<g>
	<g>
		<path class="st3" d="M407,267.5c1.93,0,1.93-3,0-3C405.07,264.5,405.07,267.5,407,267.5L407,267.5z"/>
	</g>
</g>
<g>
	<g>
		<path class="st3" d="M308,153.5c1.93,0,1.93-3,0-3C306.07,150.5,306.07,153.5,308,153.5L308,153.5z"/>
	</g>
</g>
<g>
	<g>
		<path class="st3" d="M336,57.5c1.93,0,1.93-3,0-3C334.07,54.5,334.07,57.5,336,57.5L336,57.5z"/>
	</g>
</g>
<g>
	<g>
		<path class="st3" d="M60,46.5c1.93,0,1.93-3,0-3C58.07,43.5,58.07,46.5,60,46.5L60,46.5z"/>
	</g>
</g>
<g>
	<g>
		<path class="st3" d="M43,149.5c1.93,0,1.93-3,0-3C41.07,146.5,41.07,149.5,43,149.5L43,149.5z"/>
	</g>
</g>
<g>
	<g>
		<path class="st3" d="M216,100.5c1.93,0,1.93-3,0-3C214.07,97.5,214.07,100.5,216,100.5L216,100.5z"/>
	</g>
</g>
<g>
	<g>
		<path class="st3" d="M237,227.5c1.93,0,1.93-3,0-3C235.07,224.5,235.07,227.5,237,227.5L237,227.5z"/>
	</g>
</g>
<g>
	<g>
		<path class="st3" d="M436,100.5c1.93,0,1.93-3,0-3C434.07,97.5,434.07,100.5,436,100.5L436,100.5z"/>
	</g>
</g>
<g>
	<g>
		<path class="st3" d="M544,52.5c1.93,0,1.93-3,0-3C542.07,49.5,542.07,52.5,544,52.5L544,52.5z"/>
	</g>
</g>
<g>
	<g>
		<path class="st3" d="M679,76.5c1.93,0,1.93-3,0-3C677.07,73.5,677.07,76.5,679,76.5L679,76.5z"/>
	</g>
</g>
<g>
	<g>
		<path class="st3" d="M619,155.5c1.93,0,1.93-3,0-3C617.07,152.5,617.07,155.5,619,155.5L619,155.5z"/>
	</g>
</g>
<g>
	<g>
		<path class="st3" d="M768.94,218.06c0.33,0.33,0.67,0.67,1,1c0.14,0.15,0.3,0.25,0.48,0.31c0.18,0.09,0.37,0.14,0.58,0.13
			c0.21,0.01,0.4-0.04,0.58-0.13c0.19-0.06,0.35-0.16,0.48-0.31c0.08-0.1,0.16-0.2,0.23-0.3c0.14-0.23,0.2-0.49,0.2-0.76
			c-0.02-0.13-0.04-0.27-0.05-0.4c-0.07-0.25-0.2-0.47-0.39-0.66c-0.33-0.33-0.67-0.67-1-1c-0.14-0.15-0.3-0.25-0.48-0.31
			c-0.18-0.09-0.37-0.14-0.58-0.13c-0.21-0.01-0.4,0.04-0.58,0.13c-0.19,0.06-0.35,0.16-0.48,0.31c-0.08,0.1-0.16,0.2-0.23,0.3
			c-0.14,0.23-0.2,0.49-0.2,0.76c0.02,0.13,0.04,0.27,0.05,0.4C768.62,217.65,768.75,217.87,768.94,218.06L768.94,218.06z"/>
	</g>
</g>
<g>
	<g>
		<path class="st3" d="M797,73.5c1.93,0,1.93-3,0-3C795.07,70.5,795.07,73.5,797,73.5L797,73.5z"/>
	</g>
</g>
<g>
	<g>
		<path class="st3" d="M1199,148.5c1.93,0,1.93-3,0-3C1197.07,145.5,1197.07,148.5,1199,148.5L1199,148.5z"/>
	</g>
</g>
<g>
	<g>
		<path class="st3" d="M1186,78.5c1.93,0,1.93-3,0-3C1184.07,75.5,1184.07,78.5,1186,78.5L1186,78.5z"/>
	</g>
</g>
<g>
	<g>
		<path class="st3" d="M1353,59.5c1.93,0,1.93-3,0-3C1351.07,56.5,1351.07,59.5,1353,59.5L1353,59.5z"/>
	</g>
</g>
<g>
	<g>
		<path class="st3" d="M1362,177.5c1.93,0,1.93-3,0-3C1360.07,174.5,1360.07,177.5,1362,177.5L1362,177.5z"/>
	</g>
</g>
<g>
	<g>
		<path class="st3" d="M845,169.5c1.93,0,1.93-3,0-3C843.07,166.5,843.07,169.5,845,169.5L845,169.5z"/>
	</g>
</g>
<g>
	<g>
		<path class="st3" d="M1172,33.5c1.93,0,1.93-3,0-3C1170.07,30.5,1170.07,33.5,1172,33.5L1172,33.5z"/>
	</g>
</g>
<g>
	<path class="st4" d="M642.24,710.51l-141.35,32.33c-18.31,4.19-36.54-7.26-40.72-25.56l-76.7-335.34
		c-4.19-18.31,7.26-36.54,25.56-40.72l141.35-32.33c18.3-4.19,36.54,7.26,40.72,25.56l76.7,335.34
		C671.99,688.09,660.55,706.32,642.24,710.51z"/>
	<path class="st5" d="M613.49,656.56l-109.18,24.97c-18.31,4.19-36.54-7.26-40.72-25.56l-58.86-257.35
		c-4.19-18.31,7.26-36.54,25.56-40.72l109.18-24.97c18.31-4.19,36.54,7.26,40.72,25.56l58.86,257.35
		C643.24,634.14,631.8,652.37,613.49,656.56z"/>
	<circle cx="561.62" cy="696.63" r="20.5"/>
</g>
<g>
	<path d="M916.35,474.76l23.95,9.61c2.98,1.2,6.37-0.25,7.56-3.23l50.42-125.63c1.2-2.98-0.25-6.37-3.23-7.56l-23.95-9.61
		c-2.98-1.2-6.37,0.25-7.56,3.23L913.12,467.2C911.93,470.18,913.37,473.56,916.35,474.76z"/>
	<path class="st6" d="M803.53,744.24l-33.41-13.41c-40.49-16.25-60.14-62.25-43.89-102.74l72.63-180.97
		c16.25-40.49,62.25-60.14,102.74-43.89l33.41,13.41c40.49,16.25,60.14,62.25,43.89,102.74l-72.63,180.97
		C890.02,740.84,844.02,760.49,803.53,744.24z"/>
	<path class="st5" d="M841.6,600.08L841.6,600.08c-40.49-16.25-60.14-62.25-43.89-102.74l2.3-5.72
		c16.25-40.49,62.25-60.14,102.74-43.89l0,0c40.49,16.25,60.14,62.25,43.89,102.74l-2.3,5.72
		C928.09,596.68,882.09,616.33,841.6,600.08z"/>
	<circle cx="796.84" cy="625.12" r="18"/>
	<circle cx="845.65" cy="690.16" r="18"/>
</g>
</svg>
