<?xml version="1.0" encoding="utf-8"?>
<!-- Generator: Adobe Illustrator 28.1.0, SVG Export Plug-In . SVG Version: 6.00 Build 0)  -->
<svg version="1.1" xmlns="http://www.w3.org/2000/svg" xmlns:xlink="http://www.w3.org/1999/xlink" x="0px" y="0px"
	 viewBox="0 0 1366 768" style="enable-background:new 0 0 1366 768;" xml:space="preserve">
<style type="text/css">
	.st0{fill:#668CC2;}
	.st1{fill:#5D8C5E;}
	.st2{fill:#009245;}
</style>
<g id="Bakgrund">
	<g>
		<rect class="st0" width="1366" height="768"/>
	</g>
</g>
<g id="Skog">
	<g>
		<path class="st1" d="M-16.88,377.92c82.59-9.16,162.16,27.95,240.94,54.39c54.3,18.22,110.12,31.63,166.32,42.67
			c214.23,42.09,435.16,49.87,651.83,22.98c90.5-11.23,180.59-28.5,271.78-29.74c21.45-0.29,44.21,0.69,62.12,12.5
			c27.96,18.44,34.52,56.02,37.69,89.36c4.88,51.39,7.68,102.99,8.4,154.61c0.48,34.16-1.62,72.37-26.42,95.87
			c-22.32,21.14-55.96,23.5-86.68,24.52c-401.21,13.33-802.76-2.64-1203.87-18.6c-32.88-1.31-65.93-2.64-98.16-9.28
			c-16.61-3.42-34.65-9.57-42.65-24.52c-5.94-11.11-4.88-24.49-3.67-37.03C-26.97,629-14.69,502.36-2.4,375.73"/>
	</g>
	<g>
		<path class="st2" d="M-92.4,470.27c96.95-13.63,192.12,24.96,285.94,51.55c138.32,39.21,140.73,31.41,197.59,41.36
			C677.77,613.3,930.16,565.82,975,557c110.97-21.83,139.8-40.79,243-48c141.46-9.88,142.03,21.92,261,9.47
			c17.22-1.8,46.45-4.3,73.66,11.58c33.65,19.64,42.82,61.68,47.83,99.09c7.72,57.67,13,115.64,15.83,173.73
			c1.87,38.44,0.87,81.54-27.45,108.99c-25.48,24.7-65.03,28.71-101.18,31.09c-472.17,31.12-945.86,29.27-1419.04,27.41
			c-38.79-0.15-77.78-0.32-116-6.5c-19.7-3.19-41.19-9.38-51.19-25.9c-7.43-12.26-6.69-27.38-5.74-41.54
			c2.87-42.73,16.92-202.02,28.85-429.19"/>
	</g>
	<g>
		<polygon class="st1" points="324,397 239.78,396.62 155.56,396.25 198,323.5 240.44,250.75 282.22,323.88 		"/>
		<polygon class="st1" points="319,359 239.4,357.96 159.8,356.92 200.5,288.5 241.2,220.08 280.1,289.54 		"/>
		<polygon class="st1" points="239.5,179.6 280.9,251.3 322.29,323 239.5,323 156.71,323 198.1,251.3 		"/>
		<polygon class="st1" points="317.87,292.18 239.91,283.28 161.94,274.38 208.63,211.32 255.32,148.25 286.59,220.22 		"/>
		<polygon class="st1" points="303,240 244.83,227.58 186.66,215.17 226.5,171 266.34,126.83 284.67,183.42 		"/>
		<polygon class="st1" points="284,153 264.32,148.36 244.64,143.72 258.5,129 272.36,114.28 278.18,133.64 		"/>
		<rect x="213" y="367" class="st1" width="52" height="92"/>
	</g>
	<g>
		<polygon class="st1" points="329.85,439.46 424.92,439.04 520,438.62 472.09,357.19 424.19,275.76 377.02,357.61 		"/>
		<polygon class="st1" points="335.49,396.93 425.36,395.76 515.22,394.59 469.27,318.01 423.32,241.43 379.41,319.18 		"/>
		<polygon class="st1" points="425.24,196.11 378.51,276.37 331.77,356.63 425.24,356.63 518.71,356.63 471.98,276.37 		"/>
		<polygon class="st1" points="336.77,322.14 424.78,312.18 512.8,302.21 460.09,231.62 407.38,161.02 372.08,241.58 		"/>
		<polygon class="st1" points="353.55,263.73 419.22,249.83 484.89,235.93 439.92,186.49 394.94,137.05 374.25,200.39 		"/>
		<polygon class="st1" points="375,166.34 397.22,161.15 419.44,155.96 403.79,139.48 388.15,123 381.58,144.67 		"/>
		
			<rect x="396.45" y="405.88" transform="matrix(-1 -1.224647e-16 1.224647e-16 -1 851.6136 914.7433)" class="st1" width="58.7" height="102.98"/>
	</g>
	<g>
		<polygon class="st1" points="531.28,478.27 604.64,477.95 678,477.64 641.04,417.1 604.07,356.57 567.68,417.42 		"/>
		<polygon class="st1" points="535.64,446.65 604.98,445.78 674.31,444.91 638.86,387.98 603.4,331.05 569.52,388.85 		"/>
		<polygon class="st1" points="604.89,297.35 568.83,357.02 532.77,416.69 604.89,416.69 677.01,416.69 640.95,357.02 		"/>
		<polygon class="st1" points="536.62,391.05 604.53,383.64 672.45,376.23 631.78,323.75 591.11,271.27 563.86,331.16 		"/>
		<polygon class="st1" points="549.57,347.62 600.24,337.29 650.91,326.96 616.21,290.2 581.51,253.45 565.54,300.53 		"/>
		<polygon class="st1" points="566.12,275.22 583.27,271.36 600.41,267.5 588.34,255.25 576.27,243 571.2,259.11 		"/>
		
			<rect x="582.68" y="453.3" transform="matrix(-1 -1.224647e-16 1.224647e-16 -1 1210.6454 983.1645)" class="st1" width="45.3" height="76.56"/>
	</g>
	<g>
		<polygon class="st1" points="161.72,353.86 77.5,353.48 -6.72,353.11 35.72,280.36 78.15,207.62 119.94,280.74 		"/>
		<polygon class="st1" points="156.72,315.86 77.12,314.82 -2.49,313.78 38.22,245.36 78.92,176.95 117.82,246.4 		"/>
		<polygon class="st1" points="77.22,136.46 118.62,208.16 160.01,279.86 77.22,279.86 -5.58,279.86 35.82,208.16 		"/>
		<polygon class="st1" points="155.59,249.05 77.62,240.15 -0.34,231.24 46.35,168.18 93.04,105.11 124.31,177.08 		"/>
		<polygon class="st1" points="140.72,196.86 82.55,184.44 24.38,172.03 64.22,127.86 104.05,83.69 122.39,140.28 		"/>
		<polygon class="st1" points="121.72,109.86 102.04,105.22 82.36,100.58 96.22,85.86 110.07,71.14 115.9,90.5 		"/>
		<rect x="50.72" y="323.86" class="st1" width="52" height="92"/>
	</g>
	<g>
		<polygon class="st1" points="1170.28,424.86 1254.5,424.48 1338.72,424.11 1296.28,351.36 1253.85,278.62 1212.06,351.74 		"/>
		<polygon class="st1" points="1175.28,386.86 1254.88,385.82 1334.49,384.78 1293.78,316.36 1253.08,247.95 1214.18,317.4 		"/>
		<polygon class="st1" points="1254.78,207.46 1213.39,279.16 1171.99,350.86 1254.78,350.86 1337.58,350.86 1296.18,279.16 		"/>
		<polygon class="st1" points="1176.41,320.05 1254.38,311.15 1332.34,302.24 1285.65,239.18 1238.96,176.11 1207.69,248.08 		"/>
		<polygon class="st1" points="1191.28,267.86 1249.45,255.44 1307.62,243.03 1267.78,198.86 1227.95,154.69 1209.61,211.28 		"/>
		<polygon class="st1" points="1210.28,180.86 1229.96,176.22 1249.64,171.58 1235.78,156.86 1221.93,142.14 1216.1,161.5 		"/>
		
			<rect x="1229.28" y="394.86" transform="matrix(-1 -1.224647e-16 1.224647e-16 -1 2510.5647 881.7224)" class="st1" width="52" height="92"/>
	</g>
</g>
</svg>
