<?xml version="1.0" encoding="utf-8"?>
<!-- Generator: Adobe Illustrator 28.1.0, SVG Export Plug-In . SVG Version: 6.00 Build 0)  -->
<svg version="1.1" xmlns="http://www.w3.org/2000/svg" xmlns:xlink="http://www.w3.org/1999/xlink" x="0px" y="0px"
	 viewBox="0 0 1366 768" style="enable-background:new 0 0 1366 768;" xml:space="preserve">
<style type="text/css">
	.st0{fill:url(#SVGID_1_);}
	.st1{fill:#005837;}
	.st2{fill:#C69C6D;}
</style>
<g id="Bakground">
	<g>
		<linearGradient id="SVGID_1_" gradientUnits="userSpaceOnUse" x1="683" y1="136" x2="683" y2="794.1489">
			<stop  offset="0" style="stop-color:#00448A"/>
			<stop  offset="1" style="stop-color:#009245"/>
		</linearGradient>
		<rect class="st0" width="1366" height="768"/>
	</g>
</g>
<g id="Trees">
	<g>
		<polygon class="st1" points="149.42,73.26 195.21,151.63 241,230 149.42,230 57.84,230 103.63,151.63 		"/>
		<polygon class="st1" points="149.67,273.26 222.33,387.13 295,501 149.67,501 4.34,501 77,387.13 		"/>
		<polygon class="st1" points="149.5,220.26 206.58,319.13 263.66,418 149.5,418 35.34,418 92.42,319.13 		"/>
		<polygon class="st1" points="149.5,161.26 206.58,260.13 263.66,359 149.5,359 35.34,359 92.42,260.13 		"/>
		<polygon class="st1" points="143.67,132.26 191.83,212.13 240,292 143.67,292 47.34,292 95.5,212.13 		"/>
		<rect x="119" y="427" class="st1" width="62" height="181"/>
	</g>
	<g>
		<polygon class="st1" points="343.25,127.13 389.04,205.5 434.83,283.87 343.25,283.87 251.67,283.87 297.46,205.5 		"/>
		<polygon class="st1" points="343.5,327.13 416.17,441 488.83,554.87 343.5,554.87 198.17,554.87 270.83,441 		"/>
		<polygon class="st1" points="343.33,274.13 400.41,373 457.5,471.87 343.33,471.87 229.17,471.87 286.25,373 		"/>
		<polygon class="st1" points="343.33,215.13 400.41,314 457.5,412.87 343.33,412.87 229.17,412.87 286.25,314 		"/>
		<polygon class="st1" points="337.5,186.13 385.67,266 433.83,345.87 337.5,345.87 241.17,345.87 289.33,266 		"/>
		<rect x="312.83" y="480.87" class="st1" width="62" height="181"/>
	</g>
	<g>
		<polygon class="st1" points="537.25,174.13 583.04,252.5 628.83,330.87 537.25,330.87 445.67,330.87 491.46,252.5 		"/>
		<polygon class="st1" points="537.5,374.13 610.17,488 682.83,601.87 537.5,601.87 392.17,601.87 464.83,488 		"/>
		<polygon class="st1" points="537.33,321.13 594.41,420 651.5,518.87 537.33,518.87 423.17,518.87 480.25,420 		"/>
		<polygon class="st1" points="537.33,262.13 594.41,361 651.5,459.87 537.33,459.87 423.17,459.87 480.25,361 		"/>
		<polygon class="st1" points="531.5,233.13 579.67,313 627.83,392.87 531.5,392.87 435.17,392.87 483.33,313 		"/>
		<rect x="506.83" y="527.87" class="st1" width="62" height="181"/>
	</g>
	<g>
		<g>
			<path class="st1" d="M-56,62.5c1.93,0,1.93-3,0-3C-57.93,59.5-57.93,62.5-56,62.5L-56,62.5z"/>
		</g>
	</g>
	<g>
		<path class="st1" d="M1.58,520.39c179.36,23.11,357.13,58.6,531.62,106.12c51.57,14.04,102.96,29.16,155.57,38.53
			c225.43,40.13,456.65-27.3,685.15-12.44c13.26,32.69,19.04,68.38,16.79,103.58c-0.79,12.33-2.8,25.22-10.3,35.03
			c-11.08,14.48-30.9,18.49-48.99,20.83c-65.1,8.44-130.94,8.72-196.58,8.98c-91.15,0.37-182.31,0.73-273.46,1.1
			c-104.48,0.42-208.98,0.84-313.41-2.37c-189.26-5.81-378.15-23.54-565.19-53.04c-6.25-0.99-12.8-2.12-17.75-6.06
			c-10.61-8.46-8.83-24.78-6.06-38.06c14.2-67.88,28.4-135.75,42.6-203.63"/>
	</g>
	<g>
		<polygon class="st1" points="898.25,221.13 944.04,299.5 989.83,377.87 898.25,377.87 806.67,377.87 852.46,299.5 		"/>
		<polygon class="st1" points="898.5,421.13 971.17,535 1043.83,648.87 898.5,648.87 753.17,648.87 825.83,535 		"/>
		<polygon class="st1" points="898.33,368.13 955.41,467 1012.5,565.87 898.33,565.87 784.17,565.87 841.25,467 		"/>
		<polygon class="st1" points="898.33,309.13 955.41,408 1012.5,506.87 898.33,506.87 784.17,506.87 841.25,408 		"/>
		<polygon class="st1" points="892.5,280.13 940.67,360 988.83,439.87 892.5,439.87 796.17,439.87 844.33,360 		"/>
		<rect x="867.83" y="574.87" class="st1" width="62" height="181"/>
	</g>
	<g>
		<polygon class="st1" points="1284.25,160.13 1330.04,238.5 1375.83,316.87 1284.25,316.87 1192.67,316.87 1238.46,238.5 		"/>
		<polygon class="st1" points="1284.5,360.13 1357.17,474 1429.83,587.87 1284.5,587.87 1139.17,587.87 1211.83,474 		"/>
		<polygon class="st1" points="1284.33,307.13 1341.41,406 1398.5,504.87 1284.33,504.87 1170.17,504.87 1227.25,406 		"/>
		<polygon class="st1" points="1284.33,248.13 1341.41,347 1398.5,445.87 1284.33,445.87 1170.17,445.87 1227.25,347 		"/>
		<polygon class="st1" points="1278.5,219.13 1326.67,299 1374.83,378.87 1278.5,378.87 1182.17,378.87 1230.33,299 		"/>
		<rect x="1253.83" y="513.87" class="st1" width="62" height="181"/>
	</g>
	<g>
		<polygon class="st1" points="445.25,165.13 491.04,243.5 536.83,321.87 445.25,321.87 353.67,321.87 399.46,243.5 		"/>
		<polygon class="st1" points="445.5,365.13 518.17,479 590.83,592.87 445.5,592.87 300.17,592.87 372.83,479 		"/>
		<polygon class="st1" points="445.33,312.13 502.41,411 559.5,509.87 445.33,509.87 331.17,509.87 388.25,411 		"/>
		<polygon class="st1" points="445.33,253.13 502.41,352 559.5,450.87 445.33,450.87 331.17,450.87 388.25,352 		"/>
		<polygon class="st1" points="439.5,224.13 487.67,304 535.83,383.87 439.5,383.87 343.17,383.87 391.33,304 		"/>
		<rect x="414.83" y="518.87" class="st1" width="62" height="181"/>
	</g>
	<g>
		<polygon class="st1" points="1097.25,221.13 1143.04,299.5 1188.83,377.87 1097.25,377.87 1005.67,377.87 1051.46,299.5 		"/>
		<polygon class="st1" points="1097.5,421.13 1170.17,535 1242.83,648.87 1097.5,648.87 952.17,648.87 1024.83,535 		"/>
		<polygon class="st1" points="1097.33,368.13 1154.41,467 1211.5,565.87 1097.33,565.87 983.17,565.87 1040.25,467 		"/>
		<polygon class="st1" points="1097.33,309.13 1154.41,408 1211.5,506.87 1097.33,506.87 983.17,506.87 1040.25,408 		"/>
		<polygon class="st1" points="1091.5,280.13 1139.67,360 1187.83,439.87 1091.5,439.87 995.17,439.87 1043.33,360 		"/>
		<rect x="1066.83" y="574.87" class="st1" width="62" height="181"/>
	</g>
	<circle class="st2" cx="1218.5" cy="137.5" r="110.5"/>
</g>
</svg>
