<?xml version="1.0" encoding="utf-8"?>
<!-- Generator: Adobe Illustrator 28.1.0, SVG Export Plug-In . SVG Version: 6.00 Build 0)  -->
<svg version="1.1" xmlns="http://www.w3.org/2000/svg" xmlns:xlink="http://www.w3.org/1999/xlink" x="0px" y="0px"
	 viewBox="0 0 1366 768" style="enable-background:new 0 0 1366 768;" xml:space="preserve">
<style type="text/css">
	.st0{fill:#2E3192;}
	.st1{fill:#FFFFFF;}
	.st2{fill:#999999;}
	.st3{fill:#42210B;stroke:#000000;stroke-miterlimit:10;}
	.st4{fill:#006837;}
	.st5{fill:#009245;}
	.st6{fill:#29ABE2;stroke:#000000;stroke-miterlimit:10;}
	.st7{fill:#0071BC;stroke:#000000;stroke-miterlimit:10;}
</style>
<g id="Bakgrund">
	<g>
		<rect x="0.5" y="0.5" class="st0" width="1365" height="767"/>
		<path d="M1365,1v766H1V1H1365 M1366,0H0v768h1366V0L1366,0z"/>
	</g>
	<g>
		<g>
			<path class="st1" d="M353,93.5c1.93,0,1.93-3,0-3C351.07,90.5,351.07,93.5,353,93.5L353,93.5z"/>
		</g>
	</g>
	<g>
		<g>
			<path class="st1" d="M501,164.5c1.93,0,1.93-3,0-3C499.07,161.5,499.07,164.5,501,164.5L501,164.5z"/>
		</g>
	</g>
	<g>
		<g>
			<path class="st1" d="M518,115.5c1.93,0,1.93-3,0-3C516.07,112.5,516.07,115.5,518,115.5L518,115.5z"/>
		</g>
	</g>
	<g>
		<g>
			<path class="st1" d="M331,212.5c1.93,0,1.93-3,0-3C329.07,209.5,329.07,212.5,331,212.5L331,212.5z"/>
		</g>
	</g>
	<g>
		<g>
			<path class="st1" d="M164,158.5c1.93,0,1.93-3,0-3C162.07,155.5,162.07,158.5,164,158.5L164,158.5z"/>
		</g>
	</g>
	<g>
		<g>
			<path class="st1" d="M191,282.5c1.93,0,1.93-3,0-3C189.07,279.5,189.07,282.5,191,282.5L191,282.5z"/>
		</g>
	</g>
	<g>
		<g>
			<path class="st1" d="M503,304.5c1.93,0,1.93-3,0-3C501.07,301.5,501.07,304.5,503,304.5L503,304.5z"/>
		</g>
	</g>
	<g>
		<g>
			<path class="st1" d="M673,191.5c1.93,0,1.93-3,0-3C671.07,188.5,671.07,191.5,673,191.5L673,191.5z"/>
		</g>
	</g>
	<g>
		<g>
			<path class="st1" d="M741,118.5c1.93,0,1.93-3,0-3C739.07,115.5,739.07,118.5,741,118.5L741,118.5z"/>
		</g>
	</g>
	<g>
		<g>
			<path class="st1" d="M870,86.5c1.93,0,1.93-3,0-3C868.07,83.5,868.07,86.5,870,86.5L870,86.5z"/>
		</g>
	</g>
	<g>
		<g>
			<path class="st1" d="M902,257.5c1.93,0,1.93-3,0-3C900.07,254.5,900.07,257.5,902,257.5L902,257.5z"/>
		</g>
	</g>
	<g>
		<g>
			<path class="st1" d="M714,298.5c1.93,0,1.93-3,0-3C712.07,295.5,712.07,298.5,714,298.5L714,298.5z"/>
		</g>
	</g>
	<g>
		<g>
			<path class="st1" d="M670,441.5c1.93,0,1.93-3,0-3C668.07,438.5,668.07,441.5,670,441.5L670,441.5z"/>
		</g>
	</g>
	<g>
		<g>
			<path class="st1" d="M439,407.5c1.93,0,1.93-3,0-3C437.07,404.5,437.07,407.5,439,407.5L439,407.5z"/>
		</g>
	</g>
	<g>
		<g>
			<path class="st1" d="M306,317.5c1.93,0,1.93-3,0-3C304.07,314.5,304.07,317.5,306,317.5L306,317.5z"/>
		</g>
	</g>
	<g>
		<g>
			<path class="st1" d="M1050,375.5c1.93,0,1.93-3,0-3C1048.07,372.5,1048.07,375.5,1050,375.5L1050,375.5z"/>
		</g>
	</g>
	<g>
		<g>
			<path class="st1" d="M926,364.5c1.93,0,1.93-3,0-3C924.07,361.5,924.07,364.5,926,364.5L926,364.5z"/>
		</g>
	</g>
	<circle class="st2" cx="1177.5" cy="126.5" r="102.5"/>
	<g>
		<rect x="898.5" y="437.5" class="st3" width="54" height="104"/>
		<polygon class="st4" points="922,140.74 849.9,265.63 994.1,265.63 		"/>
		<polygon class="st4" points="925.7,341.06 813.4,501 1038,501 		"/>
		<polygon class="st4" points="925.5,300.06 853.4,424.94 997.6,424.94 		"/>
		<polygon class="st4" points="922.2,114.06 869.4,195 975,195 		"/>
		<polygon class="st4" points="925.7,228.06 812.4,390 1039,390 		"/>
		<polygon class="st4" points="925.5,188.06 853.4,312.94 997.6,312.94 		"/>
	</g>
	<g>
		<rect x="749.3" y="472.97" class="st3" width="54" height="104"/>
		<polygon class="st4" points="772.8,176.21 700.7,301.1 844.91,301.1 		"/>
		<polygon class="st4" points="776.5,376.53 664.2,536.47 888.8,536.47 		"/>
		<polygon class="st4" points="776.3,335.53 704.2,460.42 848.41,460.42 		"/>
		<polygon class="st4" points="773,149.53 720.2,230.47 825.8,230.47 		"/>
		<polygon class="st4" points="776.5,263.53 663.2,425.47 889.8,425.47 		"/>
		<polygon class="st4" points="776.3,223.53 704.2,348.42 848.41,348.42 		"/>
	</g>
	<g>
		<rect x="1043.3" y="406.97" class="st3" width="54" height="104"/>
		<polygon class="st4" points="1066.8,110.21 994.7,235.1 1138.91,235.1 		"/>
		<polygon class="st4" points="1070.5,310.53 958.2,470.47 1182.8,470.47 		"/>
		<polygon class="st4" points="1070.3,269.53 998.2,394.42 1142.41,394.42 		"/>
		<polygon class="st4" points="1067,83.53 1014.2,164.47 1119.8,164.47 		"/>
		<polygon class="st4" points="1070.5,197.53 957.2,359.47 1183.8,359.47 		"/>
		<polygon class="st4" points="1070.3,157.53 998.2,282.42 1142.41,282.42 		"/>
	</g>
	<g>
		<rect x="1201.42" y="358.33" class="st3" width="67.87" height="112.64"/>
		<polygon class="st4" points="1230.95,36.9 1140.33,172.17 1321.57,172.17 		"/>
		<polygon class="st4" points="1235.6,253.87 1094.45,427.11 1376.74,427.11 		"/>
		<polygon class="st4" points="1235.35,209.46 1144.73,344.73 1325.97,344.73 		"/>
		<polygon class="st4" points="1231.2,8 1164.84,95.67 1297.56,95.67 		"/>
		<polygon class="st4" points="1235.6,131.48 1093.2,306.88 1378,306.88 		"/>
		<polygon class="st4" points="1235.35,88.15 1144.73,223.42 1325.97,223.42 		"/>
	</g>
</g>
<g id="Skog">
	<g>
		<path class="st4" d="M-17.03,501.52c133.06-0.51,262.98,37.03,394.73,55.64c212.06,29.95,429.7,10.43,636.58-44.95
			c116.13-31.09,232.78-73.79,352.71-65.55c8.48,0.58,17.38,1.58,24.31,6.49c11.08,7.86,13.69,22.93,15.36,36.41
			c8.86,71.62,16.71,144.02,9.44,215.82c-2.82,27.83-8.77,57.2-28.19,77.33c-20.87,21.62-52.63,27.91-82.38,32.19
			c-346.25,49.8-698.56-26.54-1047.89-8.12c-78.47,4.14-157.85,13.01-235.08-1.46c-17.36-3.25-36.33-8.99-45.17-24.28
			c-7.96-13.79-5.16-30.98-2.49-46.68c13.3-78.33,16.99-158.29,10.96-237.52"/>
	</g>
	<g>
		<path class="st5" d="M-12.93,537.46c133.06-0.51,262.98,37.03,394.73,55.64c212.06,29.95,429.7,10.43,636.58-44.95
			c116.13-31.09,232.78-73.79,352.71-65.55c8.48,0.58,17.38,1.58,24.31,6.49c11.08,7.86,13.69,22.93,15.36,36.41
			c8.86,71.62,16.71,144.02,9.44,215.82c-2.82,27.83-8.77,57.2-28.19,77.33c-20.87,21.62-52.63,27.91-82.38,32.19
			c-346.25,49.8-698.56-26.54-1047.89-8.12c-78.47,4.14-157.85,13.01-235.08-1.46c-17.36-3.25-36.33-8.99-45.17-24.28
			C-26.47,803.2-23.67,786-21,770.3c13.3-78.33,16.99-158.29,10.96-237.52"/>
	</g>
	<g>
		<path class="st6" d="M618.96,685.62c-49.86-2.94-103.48-3.36-160.39,0c-28.86,1.7-56.73,4.27-83.55,7.51
			c-21.14-60.37-42.27-120.75-63.41-181.12h242.45C575.69,569.87,597.32,627.74,618.96,685.62z"/>
		<path class="st7" d="M311.61,512c10.58,30.17,21.16,60.35,31.74,90.52l36.15,90.6H307.2h-72.29l36.15-90.6
			C284.57,572.35,298.09,542.17,311.61,512z"/>
		<g>
			<g>
				<path d="M555.21,513.96c18.53,21.97,36.9,44.08,55.63,65.87c8.77,10.2,17.84,20.12,27.62,29.36c9,8.51,18.4,16.59,27.48,25.02
					c10.39,9.65,20.36,19.81,28.77,31.26c1.13,1.54,3.74,0.04,2.59-1.51c-14.97-20.37-34.52-36.34-52.96-53.37
					c-20.31-18.76-37.67-40.26-55.46-61.35c-10.51-12.46-21.03-24.93-31.54-37.39C556.08,510.37,553.97,512.5,555.21,513.96
					L555.21,513.96z"/>
			</g>
		</g>
		<g>
			<g>
				<path d="M310.45,517.12c-11.06,12.9-22.13,25.79-33.19,38.69c-10.94,12.76-21.81,25.58-32.88,38.24
					c-10.49,11.99-21.33,23.62-33.02,34.45c-10.74,9.95-21.92,19.4-32.71,29.28c-10.86,9.94-21.32,20.37-30.46,31.94
					c-1.18,1.49-2.34,3-3.48,4.53c-1.16,1.55,1.45,3.04,2.59,1.51c8.87-11.87,19.19-22.56,30.01-32.66
					c10.65-9.94,21.77-19.35,32.54-29.14c11.58-10.53,22.44-21.73,32.83-33.44c11.06-12.47,21.81-25.21,32.66-37.86
					c11.01-12.83,22.02-25.67,33.03-38.5c1.4-1.64,2.81-3.27,4.21-4.91C313.82,517.79,311.71,515.66,310.45,517.12L310.45,517.12z"
					/>
			</g>
		</g>
	</g>
	<g>
		<g>
			<path d="M310.13,517c-0.02,22.94-0.07,45.87-0.17,68.81c-0.09,22.85-0.22,45.7-0.39,68.55c-0.09,12.88-0.2,25.76-0.32,38.64
				c-0.02,1.93,2.98,1.93,3,0c0.21-22.93,0.38-45.87,0.52-68.8c0.13-22.85,0.23-45.7,0.29-68.56c0.03-12.88,0.06-25.76,0.07-38.64
				C313.13,515.07,310.13,515.07,310.13,517L310.13,517z"/>
		</g>
	</g>
</g>
</svg>
